<svg width="146" height="32" viewBox="0 0 146 32" fill="none" xmlns="http://www.w3.org/2000/svg">
<path d="M45.696 25.216C43.952 25.216 42.568 24.632 41.544 23.464C40.536 22.28 40.032 20.792 40.032 19C40.032 17.192 40.552 15.688 41.592 14.488C42.648 13.272 44.016 12.664 45.696 12.664C47.536 12.664 48.952 13.256 49.944 14.44C50.952 15.624 51.456 17.128 51.456 18.952C51.456 20.76 50.944 22.256 49.92 23.44C48.896 24.624 47.488 25.216 45.696 25.216ZM45.696 14.344C44.544 14.344 43.64 14.792 42.984 15.688C42.328 16.584 42 17.68 42 18.976C42 20.24 42.336 21.32 43.008 22.216C43.68 23.096 44.576 23.536 45.696 23.536C46.912 23.536 47.848 23.104 48.504 22.24C49.16 21.36 49.488 20.272 49.488 18.976C49.488 17.632 49.176 16.528 48.552 15.664C47.928 14.784 46.976 14.344 45.696 14.344ZM56.1006 12.832V14.968C56.7406 13.464 57.8446 12.712 59.4126 12.712C59.7006 12.712 59.9246 12.728 60.0846 12.76V14.632C59.7486 14.52 59.4046 14.464 59.0526 14.464C58.2046 14.464 57.5006 14.856 56.9406 15.64C56.3806 16.424 56.1006 17.328 56.1006 18.352V25H54.2046L54.2286 12.832H56.1006ZM62.1527 25V8.032H64.0487V25H62.1527ZM72.2903 23.464C73.2823 23.464 74.1223 23.096 74.8103 22.36C75.5143 21.624 75.8663 20.448 75.8663 18.832C75.8663 17.296 75.5063 16.168 74.7863 15.448C74.0663 14.728 73.2743 14.368 72.4103 14.368C71.4023 14.368 70.5623 14.776 69.8903 15.592C69.2343 16.392 68.9062 17.544 68.9062 19.048C68.9062 20.36 69.2263 21.424 69.8663 22.24C70.5063 23.056 71.3143 23.464 72.2903 23.464ZM75.8663 8.032H77.7623V25H75.8663V23.2C75.0023 24.528 73.7543 25.192 72.1223 25.192C70.5063 25.192 69.2343 24.592 68.3063 23.392C67.3943 22.192 66.9383 20.736 66.9383 19.024C66.9383 17.12 67.4263 15.584 68.4023 14.416C69.3783 13.232 70.6343 12.64 72.1703 12.64C73.7543 12.64 74.9863 13.32 75.8663 14.68V8.032ZM87.8994 13.24V15.04C87.1634 14.592 86.1554 14.368 84.8754 14.368C84.2354 14.368 83.7234 14.52 83.3394 14.824C82.9714 15.112 82.7874 15.488 82.7874 15.952C82.7874 16.24 82.8434 16.496 82.9554 16.72C83.0674 16.928 83.2834 17.136 83.6034 17.344C83.9394 17.552 84.1794 17.696 84.3234 17.776C84.4834 17.84 84.8194 17.984 85.3314 18.208C86.3554 18.624 87.1554 19.096 87.7314 19.624C88.3074 20.152 88.5954 20.864 88.5954 21.76C88.5954 22.8 88.2274 23.624 87.4914 24.232C86.7714 24.84 85.7794 25.144 84.5154 25.144C83.0434 25.144 81.8514 24.896 80.9394 24.4V22.552C82.0114 23.192 83.1634 23.512 84.3954 23.512C85.1314 23.512 85.6914 23.368 86.0754 23.08C86.4594 22.792 86.6514 22.4 86.6514 21.904C86.6514 21.328 86.4354 20.88 86.0034 20.56C85.5874 20.24 84.8834 19.88 83.8914 19.48C82.9794 19.128 82.2434 18.688 81.6834 18.16C81.1394 17.632 80.8674 16.92 80.8674 16.024C80.8674 15.016 81.2434 14.216 81.9954 13.624C82.7634 13.016 83.7154 12.712 84.8514 12.712C86.1154 12.712 87.1314 12.888 87.8994 13.24ZM103.649 13.24V15.04C102.913 14.592 101.905 14.368 100.625 14.368C99.9854 14.368 99.4734 14.52 99.0894 14.824C98.7214 15.112 98.5374 15.488 98.5374 15.952C98.5374 16.24 98.5934 16.496 98.7054 16.72C98.8174 16.928 99.0334 17.136 99.3534 17.344C99.6894 17.552 99.9294 17.696 100.073 17.776C100.233 17.84 100.569 17.984 101.081 18.208C102.105 18.624 102.905 19.096 103.481 19.624C104.057 20.152 104.345 20.864 104.345 21.76C104.345 22.8 103.977 23.624 103.241 24.232C102.521 24.84 101.529 25.144 100.265 25.144C98.7934 25.144 97.6014 24.896 96.6894 24.4V22.552C97.7614 23.192 98.9134 23.512 100.145 23.512C100.881 23.512 101.441 23.368 101.825 23.08C102.209 22.792 102.401 22.4 102.401 21.904C102.401 21.328 102.185 20.88 101.753 20.56C101.337 20.24 100.633 19.88 99.6414 19.48C98.7294 19.128 97.9934 18.688 97.4334 18.16C96.8894 17.632 96.6174 16.92 96.6174 16.024C96.6174 15.016 96.9934 14.216 97.7454 13.624C98.5134 13.016 99.4654 12.712 100.601 12.712C101.865 12.712 102.881 12.888 103.649 13.24ZM109.532 14.368V21.496C109.532 22.792 110.14 23.44 111.356 23.44C111.98 23.44 112.532 23.256 113.012 22.888V24.688C112.484 24.976 111.892 25.12 111.236 25.12C108.836 25.12 107.636 23.896 107.636 21.448V14.368H105.692V12.832H107.636V9.808H109.532V12.832H112.892V14.368H109.532ZM122.327 19.384H120.215C119.191 19.384 118.423 19.584 117.911 19.984C117.399 20.384 117.143 20.888 117.143 21.496C117.143 22.104 117.343 22.6 117.743 22.984C118.143 23.352 118.727 23.536 119.495 23.536C120.359 23.536 121.047 23.296 121.559 22.816C122.071 22.32 122.327 21.696 122.327 20.944V19.384ZM116.039 15.376V13.48C116.951 12.92 118.151 12.64 119.639 12.64C122.695 12.64 124.223 14.192 124.223 17.296V25H122.351V23.56C121.727 24.6 120.591 25.12 118.943 25.12C117.807 25.12 116.887 24.784 116.183 24.112C115.495 23.44 115.151 22.592 115.151 21.568C115.151 20.4 115.591 19.496 116.471 18.856C117.367 18.2 118.583 17.872 120.119 17.872H122.327V17.248C122.327 16.288 122.111 15.568 121.679 15.088C121.247 14.592 120.519 14.344 119.495 14.344C118.199 14.344 117.047 14.688 116.039 15.376ZM130.204 14.368V21.496C130.204 22.792 130.812 23.44 132.028 23.44C132.652 23.44 133.204 23.256 133.684 22.888V24.688C133.156 24.976 132.564 25.12 131.908 25.12C129.508 25.12 128.308 23.896 128.308 21.448V14.368H126.364V12.832H128.308V9.808H130.204V12.832H133.564V14.368H130.204ZM143.071 13.24V15.04C142.335 14.592 141.327 14.368 140.047 14.368C139.407 14.368 138.895 14.52 138.511 14.824C138.143 15.112 137.959 15.488 137.959 15.952C137.959 16.24 138.015 16.496 138.127 16.72C138.239 16.928 138.455 17.136 138.775 17.344C139.111 17.552 139.351 17.696 139.495 17.776C139.655 17.84 139.991 17.984 140.503 18.208C141.527 18.624 142.327 19.096 142.903 19.624C143.479 20.152 143.767 20.864 143.767 21.76C143.767 22.8 143.399 23.624 142.663 24.232C141.943 24.84 140.951 25.144 139.687 25.144C138.215 25.144 137.023 24.896 136.111 24.4V22.552C137.183 23.192 138.335 23.512 139.567 23.512C140.303 23.512 140.863 23.368 141.247 23.08C141.631 22.792 141.823 22.4 141.823 21.904C141.823 21.328 141.607 20.88 141.175 20.56C140.759 20.24 140.055 19.88 139.063 19.48C138.151 19.128 137.415 18.688 136.855 18.16C136.311 17.632 136.039 16.92 136.039 16.024C136.039 15.016 136.415 14.216 137.167 13.624C137.935 13.016 138.887 12.712 140.023 12.712C141.287 12.712 142.303 12.888 143.071 13.24Z" fill="white"/>
<path d="M1 0.755554H34.6222" stroke="#757575" stroke-width="0.25"/>
<path d="M1 6.79999H34.6222" stroke="#757575" stroke-width="0.25"/>
<path d="M1 12.8445H34.6222" stroke="#757575" stroke-width="0.25"/>
<path d="M1 18.8889H34.6222" stroke="#757575" stroke-width="0.25"/>
<path d="M1 24.9333H34.6222" stroke="#757575" stroke-width="0.25"/>
<path d="M1 30.9778H34.6222" stroke="white" stroke-width="0.25"/>
<path d="M1.37781 30.9778V0C1.37781 6.04444 5.91114 27.5778 10.0667 21.9111C14.2223 16.2444 15.3556 6.8 21.7778 20.7778C28.2 34.7556 35 8.31111 35 0V30.9778H1.37781Z" stroke="white" stroke-width="2"/>
</svg>
